#Comment line ignore any data following # character 
#Hierarchical Translation and Rotation (.htr) file 
[Header]	
#Header keywords are followed by a single value 
FileType HTR		#Single word string
DataType HTRS		#Translation followed by rotation and scale data
FileVersion 1		#integer
NumSegments 84		#integer
NumFrames 2		#integer
DataFrameRate 30		#integer, data frame rate in this file
EulerRotationOrder ZYX
CalibrationUnits mm
RotationUnits Degrees
GlobalAxisofGravity Y
BoneLengthAxis Y
ScaleFactor 1.00
[SegmentNames&Hierarchy]
#CHILD	PARENT
MASTER GLOBAL
root MASTER
chest root
L_mid_tent01 root
R_mid_tent01 root
spine01 root
Bip01_Neck chest
L_humerus chest
R_humerus chest
weapon_bone chest
Bip01_Head Bip01_Neck
eye_left_bone Bip01_Head
eye_right_bone Bip01_Head
L_forearm L_humerus
L_front_hand L_forearm
L_weapon_bone L_forearm
L_front_hand01_01 L_front_hand
L_front_hand02_01 L_front_hand
L_front_hand03_01 L_front_hand
L_front_hand01_02 L_front_hand01_01
L_front_hand02_02 L_front_hand02_01
L_front_hand03_02 L_front_hand03_01
R_forearm R_humerus
R_front_hand R_forearm
R_weapon_bone R_forearm
R_front_hand01_01 R_front_hand
R_front_hand02_01 R_front_hand
R_front_hand03_01 R_front_hand
R_front_hand01_02 R_front_hand01_01
R_front_hand02_02 R_front_hand02_01
R_front_hand03_02 R_front_hand03_01
null_rope01_connect L_mid_tent01
Rope1_Seg01 null_rope01_connect
Rope1_Seg02 Rope1_Seg01
Rope1_Seg03 Rope1_Seg02
Rope1_Seg04 Rope1_Seg03
Rope1_Seg05 Rope1_Seg04
Rope1_Seg06 Rope1_Seg05
Rope1_Seg07 Rope1_Seg06
Rope1_Seg09 Rope1_Seg07
L_mid_hand01 Rope1_Seg09
L_mid_hand02 Rope1_Seg09
L_mid_hand03 Rope1_Seg09
null_rope02_connect R_mid_tent01
Rope2_Seg01 null_rope02_connect
Rope2_Seg02 Rope2_Seg01
Rope2_Seg03 Rope2_Seg02
Rope2_Seg04 Rope2_Seg03
Rope2_Seg05 Rope2_Seg04
Rope2_Seg06 Rope2_Seg05
Rope2_Seg07 Rope2_Seg06
Rope2_Seg09 Rope2_Seg07
R_mid_hand01 Rope2_Seg09
R_mid_hand02 Rope2_Seg09
R_mid_hand03 Rope2_Seg09
spine02 spine01
spine03 spine02
pelvis spine03
null_rope03_connect pelvis
null_rope04_connect pelvis
Rope3_Seg01 null_rope03_connect
Rope3_Seg02 Rope3_Seg01
Rope3_Seg03 Rope3_Seg02
Rope3_Seg04 Rope3_Seg03
Rope3_Seg05 Rope3_Seg04
Rope3_Seg06 Rope3_Seg05
Rope3_Seg07 Rope3_Seg06
Rope3_Seg08 Rope3_Seg07
Rope3_Seg09 Rope3_Seg08
R_rear_hand01 Rope3_Seg09
R_rear_hand02 Rope3_Seg09
R_rear_hand03 Rope3_Seg09
Rope4_Seg01 null_rope04_connect
Rope4_Seg02 Rope4_Seg01
Rope4_Seg03 Rope4_Seg02
Rope4_Seg04 Rope4_Seg03
Rope4_Seg05 Rope4_Seg04
Rope4_Seg06 Rope4_Seg05
Rope4_Seg07 Rope4_Seg06
Rope4_Seg08 Rope4_Seg07
Rope4_Seg09 Rope4_Seg08
L_rear_hand01 Rope4_Seg09
L_rear_hand02 Rope4_Seg09
L_rear_hand03 Rope4_Seg09
[BasePosition]
#SegmentName Tx, Ty, Tz, Rx, Ry, Rz, BoneLength
MASTER 0.000000 0.000000 0.000000 -90.000000 0.000000 0.000000 10.000000 
root 0.000000 0.000000 0.000000 0.000000 0.000000 0.000000 10.000000 
chest 0.000000 0.000000 0.000000 0.000000 0.000000 0.000000 10.000000 
L_mid_tent01 0.000000 0.000000 0.000000 0.000000 0.000000 0.000000 10.000000 
R_mid_tent01 0.000000 0.000000 0.000000 0.000000 0.000000 0.000000 10.000000 
spine01 0.000000 0.000000 0.000000 0.000000 0.000000 0.000000 10.000000 
Bip01_Neck 0.000000 0.000000 0.000000 0.000000 0.000000 0.000000 10.000000 
L_humerus 0.000000 0.000000 0.000000 0.000000 0.000000 0.000000 10.000000 
R_humerus 0.000000 0.000000 0.000000 0.000000 0.000000 0.000000 10.000000 
weapon_bone 0.000000 0.000000 0.000000 0.000000 0.000000 0.000000 10.000000 
Bip01_Head 0.000000 0.000000 0.000000 0.000000 0.000000 0.000000 10.000000 
eye_left_bone 0.000000 0.000000 0.000000 0.000000 0.000000 0.000000 10.000000 
eye_right_bone 0.000000 0.000000 0.000000 0.000000 0.000000 0.000000 10.000000 
L_forearm 0.000000 0.000000 0.000000 0.000000 0.000000 0.000000 10.000000 
L_front_hand 0.000000 0.000000 0.000000 0.000000 0.000000 0.000000 10.000000 
L_weapon_bone 0.000000 0.000000 0.000000 0.000000 0.000000 0.000000 10.000000 
L_front_hand01_01 0.000000 0.000000 0.000000 0.000000 0.000000 0.000000 10.000000 
L_front_hand02_01 0.000000 0.000000 0.000000 0.000000 0.000000 0.000000 10.000000 
L_front_hand03_01 0.000000 0.000000 0.000000 0.000000 0.000000 0.000000 10.000000 
L_front_hand01_02 0.000000 0.000000 0.000000 0.000000 0.000000 0.000000 10.000000 
L_front_hand02_02 0.000000 0.000000 0.000000 0.000000 0.000000 0.000000 10.000000 
L_front_hand03_02 0.000000 0.000000 0.000000 0.000000 0.000000 0.000000 10.000000 
R_forearm 0.000000 0.000000 0.000000 0.000000 0.000000 0.000000 10.000000 
R_front_hand 0.000000 0.000000 0.000000 0.000000 0.000000 0.000000 10.000000 
R_weapon_bone 0.000000 0.000000 0.000000 0.000000 0.000000 0.000000 10.000000 
R_front_hand01_01 0.000000 0.000000 0.000000 0.000000 0.000000 0.000000 10.000000 
R_front_hand02_01 0.000000 0.000000 0.000000 0.000000 0.000000 0.000000 10.000000 
R_front_hand03_01 0.000000 0.000000 0.000000 0.000000 0.000000 0.000000 10.000000 
R_front_hand01_02 0.000000 0.000000 0.000000 0.000000 0.000000 0.000000 10.000000 
R_front_hand02_02 0.000000 0.000000 0.000000 0.000000 0.000000 0.000000 10.000000 
R_front_hand03_02 0.000000 0.000000 0.000000 0.000000 0.000000 0.000000 10.000000 
null_rope01_connect 0.000000 0.000000 0.000000 0.000000 0.000000 0.000000 10.000000 
Rope1_Seg01 0.000000 0.000000 0.000000 0.000000 0.000000 0.000000 10.000000 
Rope1_Seg02 0.000000 0.000000 0.000000 0.000000 0.000000 0.000000 10.000000 
Rope1_Seg03 0.000000 0.000000 0.000000 0.000000 0.000000 0.000000 10.000000 
Rope1_Seg04 0.000000 0.000000 0.000000 0.000000 0.000000 0.000000 10.000000 
Rope1_Seg05 0.000000 0.000000 0.000000 0.000000 0.000000 0.000000 10.000000 
Rope1_Seg06 0.000000 0.000000 0.000000 0.000000 0.000000 0.000000 10.000000 
Rope1_Seg07 0.000000 0.000000 0.000000 0.000000 0.000000 0.000000 10.000000 
Rope1_Seg09 0.000000 0.000000 0.000000 0.000000 0.000000 0.000000 10.000000 
L_mid_hand01 0.000000 0.000000 0.000000 0.000000 0.000000 0.000000 10.000000 
L_mid_hand02 0.000000 0.000000 0.000000 0.000000 0.000000 0.000000 10.000000 
L_mid_hand03 0.000000 0.000000 0.000000 0.000000 0.000000 0.000000 10.000000 
null_rope02_connect 0.000000 0.000000 0.000000 0.000000 0.000000 0.000000 10.000000 
Rope2_Seg01 0.000000 0.000000 0.000000 0.000000 0.000000 0.000000 10.000000 
Rope2_Seg02 0.000000 0.000000 0.000000 0.000000 0.000000 0.000000 10.000000 
Rope2_Seg03 0.000000 0.000000 0.000000 0.000000 0.000000 0.000000 10.000000 
Rope2_Seg04 0.000000 0.000000 0.000000 0.000000 0.000000 0.000000 10.000000 
Rope2_Seg05 0.000000 0.000000 0.000000 0.000000 0.000000 0.000000 10.000000 
Rope2_Seg06 0.000000 0.000000 0.000000 0.000000 0.000000 0.000000 10.000000 
Rope2_Seg07 0.000000 0.000000 0.000000 0.000000 0.000000 0.000000 10.000000 
Rope2_Seg09 0.000000 0.000000 0.000000 0.000000 0.000000 0.000000 10.000000 
R_mid_hand01 0.000000 0.000000 0.000000 0.000000 0.000000 0.000000 10.000000 
R_mid_hand02 0.000000 0.000000 0.000000 0.000000 0.000000 0.000000 10.000000 
R_mid_hand03 0.000000 0.000000 0.000000 0.000000 0.000000 0.000000 10.000000 
spine02 0.000000 0.000000 0.000000 0.000000 0.000000 0.000000 10.000000 
spine03 0.000000 0.000000 0.000000 0.000000 0.000000 0.000000 10.000000 
pelvis 0.000000 0.000000 0.000000 0.000000 0.000000 0.000000 10.000000 
null_rope03_connect 0.000000 0.000000 0.000000 0.000000 0.000000 0.000000 10.000000 
null_rope04_connect 0.000000 0.000000 0.000000 0.000000 0.000000 0.000000 10.000000 
Rope3_Seg01 0.000000 0.000000 0.000000 0.000000 0.000000 0.000000 10.000000 
Rope3_Seg02 0.000000 0.000000 0.000000 0.000000 0.000000 0.000000 10.000000 
Rope3_Seg03 0.000000 0.000000 0.000000 0.000000 0.000000 0.000000 10.000000 
Rope3_Seg04 0.000000 0.000000 0.000000 0.000000 0.000000 0.000000 10.000000 
Rope3_Seg05 0.000000 0.000000 0.000000 0.000000 0.000000 0.000000 10.000000 
Rope3_Seg06 0.000000 0.000000 0.000000 0.000000 0.000000 0.000000 10.000000 
Rope3_Seg07 0.000000 0.000000 0.000000 0.000000 0.000000 0.000000 10.000000 
Rope3_Seg08 0.000000 0.000000 0.000000 0.000000 0.000000 0.000000 10.000000 
Rope3_Seg09 0.000000 0.000000 0.000000 0.000000 0.000000 0.000000 10.000000 
R_rear_hand01 0.000000 0.000000 0.000000 0.000000 0.000000 0.000000 10.000000 
R_rear_hand02 0.000000 0.000000 0.000000 0.000000 0.000000 0.000000 10.000000 
R_rear_hand03 0.000000 0.000000 0.000000 0.000000 0.000000 0.000000 10.000000 
Rope4_Seg01 0.000000 0.000000 0.000000 0.000000 0.000000 0.000000 10.000000 
Rope4_Seg02 0.000000 0.000000 0.000000 0.000000 0.000000 0.000000 10.000000 
Rope4_Seg03 0.000000 0.000000 0.000000 0.000000 0.000000 0.000000 10.000000 
Rope4_Seg04 0.000000 0.000000 0.000000 0.000000 0.000000 0.000000 10.000000 
Rope4_Seg05 0.000000 0.000000 0.000000 0.000000 0.000000 0.000000 10.000000 
Rope4_Seg06 0.000000 0.000000 0.000000 0.000000 0.000000 0.000000 10.000000 
Rope4_Seg07 0.000000 0.000000 0.000000 0.000000 0.000000 0.000000 10.000000 
Rope4_Seg08 0.000000 0.000000 0.000000 0.000000 0.000000 0.000000 10.000000 
Rope4_Seg09 0.000000 0.000000 0.000000 0.000000 0.000000 0.000000 10.000000 
L_rear_hand01 0.000000 0.000000 0.000000 0.000000 0.000000 0.000000 10.000000 
L_rear_hand02 0.000000 0.000000 0.000000 0.000000 0.000000 0.000000 10.000000 
L_rear_hand03 0.000000 0.000000 0.000000 0.000000 0.000000 0.000000 10.000000 
#Beginning of Data. Separated by tabs
#Fr	Tx	Ty	Tz	Rx	Ry	Rz	SF
[MASTER]
4 -525.862915 473.850525 165.191055 0.001660 0.001660 0.001660 726.879822
5 -701.150513 631.800659 220.254730 0.001660 0.001660 0.001660 969.173035
[root]
4 -16.502304 -28.985403 1721.127197 -112.538086 -17.547218 -69.781387 1721.450317
5 -16.502304 -47.823982 1825.534912 -120.661469 -19.832512 -61.578022 1826.235840
[chest]
4 -84.512650 -34.090519 0.000000 -0.575792 1.546556 169.981567 91.129311
5 -84.512650 -34.090519 0.000000 -0.774961 1.451591 171.185532 91.129311
[L_mid_tent01]
4 27.299068 22.179098 -249.918701 -12.689778 28.752871 42.591351 252.381683
5 27.299067 22.179094 -249.918716 -7.644668 33.128208 54.052650 252.381699
[R_mid_tent01]
4 23.228794 24.509907 226.238495 -176.454788 -27.111309 43.597069 228.744751
5 23.228794 24.509907 226.238495 178.904739 -29.273905 50.833866 228.744751
[spine01]
4 -0.361383 -0.195265 0.000000 0.001950 0.001306 22.374409 0.410763
5 -0.361383 -0.195265 0.000000 0.001951 0.001305 22.456774 0.410763
[Bip01_Neck]
4 165.484543 71.581718 0.000119 176.643677 -1.657967 43.431911 180.302734
5 165.484543 71.581718 0.000119 176.643677 -1.657967 43.431911 180.302734
[L_humerus]
4 -13.983130 -135.272980 -120.471481 147.647171 84.959351 -119.288200 181.680161
5 -13.983130 -135.272980 -120.471481 155.237091 75.445137 -112.620522 181.680161
[R_humerus]
4 -13.983309 -135.273102 125.287651 160.973846 -81.292297 -63.447453 184.909012
5 -13.983309 -135.273102 125.287651 -176.826614 -72.614487 -87.269730 184.909012
[weapon_bone]
4 235.964890 -300.705902 0.000000 0.000000 -89.951546 -128.212341 382.234833
5 235.964890 -300.705902 0.000000 0.000000 -89.951546 -128.212341 382.234833
[Bip01_Head]
4 213.442825 185.719666 11.723743 4.962490 2.797846 -43.898743 283.173248
5 213.442368 185.721054 11.706006 4.962490 2.797846 -43.898743 283.173065
[eye_left_bone]
4 -24.626970 125.451866 -64.772606 0.000000 -90.000000 -99.840431 143.318359
5 -24.626970 125.451866 -64.772606 0.000000 -90.000000 -99.840431 143.318359
[eye_right_bone]
4 -24.626970 125.451866 64.327362 0.000000 -89.965736 80.156380 143.117676
5 -24.626970 125.451866 64.327362 0.000000 -89.965736 80.156380 143.117676
[L_forearm]
4 322.776093 0.000000 -0.000119 0.000260 -0.002333 -102.740669 322.776093
5 322.776093 0.000000 -0.000119 0.000163 -0.002342 -97.942467 322.776093
[L_front_hand]
4 241.149185 -0.042021 -3.300071 -178.608322 -1.790269 -29.300268 241.171753
5 241.149185 -0.042021 -3.300071 -178.649536 -1.820940 -28.049141 241.171753
[L_weapon_bone]
4 156.183838 0.000000 0.000000 0.000014 0.000007 0.000001 156.183838
5 156.183838 0.000000 0.000000 0.000014 0.000007 0.000001 156.183838
[L_front_hand01_01]
4 86.095154 20.947098 -0.655860 -0.366594 -0.477154 75.385574 88.609184
5 86.095154 20.947098 -0.655860 -0.366594 -0.477154 75.385574 88.609184
[L_front_hand02_01]
4 86.935165 -11.437475 24.513514 154.399796 -59.883835 -61.369587 91.046425
5 86.935165 -11.437475 24.513514 154.399796 -59.883835 -61.369587 91.046425
[L_front_hand03_01]
4 86.637497 -14.123976 -20.424902 -153.913879 58.118130 -62.702892 90.126129
5 86.637497 -14.123976 -20.424902 -153.913849 58.118122 -62.702866 90.126129
[L_front_hand01_02]
4 71.020905 -0.000179 0.000030 0.000326 -0.002324 -105.984665 71.020905
5 71.020905 -0.000179 0.000030 0.000326 -0.002325 -105.945732 71.020905
[L_front_hand02_02]
4 71.020927 -0.000119 0.000060 0.000326 -0.002324 -105.984665 71.020927
5 71.020927 -0.000119 0.000060 0.000326 -0.002325 -105.945732 71.020927
[L_front_hand03_02]
4 71.020905 -0.000060 0.000060 0.000326 -0.002324 -105.984665 71.020905
5 71.020905 -0.000060 0.000060 0.000326 -0.002325 -105.945732 71.020905
[R_forearm]
4 322.776428 -0.000060 0.000030 0.210856 0.035740 -101.123207 322.776428
5 322.776428 -0.000060 0.000030 0.212536 0.020074 -96.418976 322.776428
[R_front_hand]
4 238.847015 -0.006795 2.210259 -2.221781 -10.738686 -28.534069 238.857239
5 238.847015 -0.006795 2.210259 -2.496336 -10.675905 -27.055285 238.857239
[R_weapon_bone]
4 155.664093 0.002503 -0.000030 0.003487 0.001180 -90.988930 155.664078
5 155.664093 0.002503 -0.000030 0.003487 0.001180 -90.988930 155.664078
[R_front_hand01_01]
4 87.624611 14.231146 22.918642 -154.633499 -59.950642 61.746071 91.683487
5 87.624611 14.231146 22.918642 -154.633499 -59.950619 61.746044 91.683487
[R_front_hand02_01]
4 89.356956 14.367283 -19.491137 154.602661 58.302849 63.744381 92.579636
5 89.356956 14.367283 -19.491137 154.602661 58.302849 63.744389 92.579636
[R_front_hand03_01]
4 87.286232 -22.307278 -0.143439 0.162155 -0.423168 -75.767921 90.091743
5 87.286232 -22.307278 -0.143439 0.162155 -0.423168 -75.767921 90.091743
[R_front_hand01_02]
4 71.020905 0.000060 0.000119 0.002323 -0.000334 106.381714 71.020905
5 71.020905 0.000060 0.000119 0.002323 -0.000334 106.381714 71.020905
[R_front_hand02_02]
4 71.020844 -0.000030 -0.000119 0.002323 -0.000334 106.381714 71.020836
5 71.020844 -0.000030 -0.000119 0.002323 -0.000334 106.381714 71.020836
[R_front_hand03_02]
4 71.020905 0.000000 0.000030 0.002323 -0.000334 106.381714 71.020905
5 71.020905 0.000000 0.000030 0.002323 -0.000334 106.381714 71.020905
[null_rope01_connect]
4 328.732483 0.000000 -0.000238 -164.716049 -45.567558 -122.844505 328.732483
5 328.732483 0.000000 -0.000238 -163.658279 -39.088909 -125.272682 328.732483
[Rope1_Seg01]
4 -0.000002 -0.000036 0.000153 62.870586 6.270576 -111.669174 0.000157
5 -0.000003 -0.000035 0.000153 55.697018 7.752518 -115.690849 0.000157
[Rope1_Seg02]
4 139.999863 -0.000179 0.000000 -27.652456 -15.460797 -27.837255 139.999863
5 139.999863 -0.000179 0.000000 -25.834915 -14.405802 -34.734081 139.999863
[Rope1_Seg03]
4 139.999924 0.000060 -0.000060 -11.396958 8.842612 -49.068474 139.999924
5 139.999924 0.000060 -0.000060 -7.709097 2.456013 -43.511951 139.999924
[Rope1_Seg04]
4 139.999924 -0.000060 -0.000119 -15.200260 33.404999 -34.805050 139.999924
5 139.999924 -0.000060 -0.000119 -2.000341 14.880872 -21.339628 139.999924
[Rope1_Seg05]
4 139.999832 0.000119 -0.000060 -4.512660 10.584999 -9.328043 139.999832
5 139.999832 0.000119 -0.000060 -0.187690 7.874734 -9.883712 139.999832
[Rope1_Seg06]
4 139.999954 0.000119 -0.000060 -0.905122 1.570054 -1.197876 139.999954
5 139.999954 0.000119 -0.000060 0.723438 3.330589 -4.981195 139.999954
[Rope1_Seg07]
4 139.999985 0.000060 0.000000 0.006605 0.001660 0.001660 139.999985
5 139.999985 0.000060 0.000000 0.614501 1.932368 -2.975979 139.999985
[Rope1_Seg09]
4 121.602913 0.000119 -0.000089 -89.793175 -1.359789 0.847147 121.602913
5 121.602913 0.000119 -0.000089 -89.793175 -1.359789 0.847147 121.602913
[L_mid_hand01]
4 103.859421 1.038730 8.195221 128.844925 -66.712723 -37.020279 104.187431
5 103.859421 1.038730 8.195221 130.095490 -67.358856 -38.382183 104.187431
[L_mid_hand02]
4 105.572853 -4.139662 -10.864139 -167.882584 43.183556 -71.986374 106.211075
5 105.572853 -4.139662 -10.864139 -168.652405 43.348949 -73.107704 106.211075
[L_mid_hand03]
4 104.641464 17.579376 -3.913581 -6.373020 17.687300 73.717346 106.179977
5 104.641464 17.579376 -3.913581 -6.108395 17.779198 74.588531 106.179977
[null_rope02_connect]
4 328.732849 0.000179 -0.000119 -80.726189 53.651993 38.494518 328.732849
5 328.732849 0.000179 -0.000119 -71.097557 44.456017 51.181168 328.732849
[Rope2_Seg01]
4 0.000040 0.000125 0.000008 44.083046 36.335464 -24.929609 0.000131
5 0.000041 0.000128 0.000011 38.572742 56.480755 -27.840097 0.000135
[Rope2_Seg02]
4 139.999741 -0.000060 -0.000119 -10.691789 1.059119 -25.276115 139.999756
5 139.999741 -0.000060 -0.000119 -2.805913 -5.316360 -13.918772 139.999756
[Rope2_Seg03]
4 140.000107 0.000030 0.000000 -3.419036 4.903722 -15.393655 140.000107
5 140.000107 0.000030 0.000000 -3.580114 -13.677425 -16.010996 140.000107
[Rope2_Seg04]
4 139.999802 0.000000 -0.000060 -1.062122 3.587420 -24.685835 139.999802
5 139.999802 0.000000 -0.000060 -6.567598 17.344625 -37.303001 139.999802
[Rope2_Seg05]
4 139.999985 -0.000060 0.000119 4.171165 2.599597 -24.876759 139.999985
5 139.999985 -0.000060 0.000119 4.003778 16.906010 -22.574368 139.999985
[Rope2_Seg06]
4 139.999893 -0.000030 -0.000119 3.428205 0.496176 -10.517647 139.999893
5 139.999893 -0.000030 -0.000119 5.126606 3.849530 -7.996104 139.999893
[Rope2_Seg07]
4 139.999893 0.000060 -0.000060 2.318452 -0.077999 -5.849456 139.999893
5 139.999893 0.000060 -0.000060 3.375673 1.550538 -4.169540 139.999893
[Rope2_Seg09]
4 121.338966 0.000089 -0.000060 33.793236 -1.359788 -0.847141 121.338966
5 121.338966 0.000089 -0.000060 33.793236 -1.359788 -0.847141 121.338966
[R_mid_hand01]
4 104.680779 11.144459 -10.335981 -17.254469 44.921875 68.987289 105.778534
5 104.680779 11.144459 -10.335981 -16.480762 45.159000 70.079010 105.778534
[R_mid_hand02]
4 104.070427 2.443552 8.231699 50.757656 -66.920883 37.459167 104.424065
5 104.070427 2.443552 8.231699 49.518703 -67.538940 38.801071 104.424065
[R_mid_hand03]
4 106.028137 -11.221827 -5.996406 -176.797501 15.492968 -75.452667 106.788818
5 106.028137 -11.221827 -5.996406 -177.019348 15.538846 -76.294624 106.788818
[spine02]
4 129.756927 0.001550 0.000119 -0.537059 -4.124720 -0.157159 129.756927
5 129.756927 0.001550 0.000119 -0.881493 -3.997083 4.725235 129.756927
[spine03]
4 78.614037 0.081779 -4.898993 1.355466 4.241382 8.533010 78.766571
5 78.614037 0.081776 -4.898993 1.133713 4.181901 5.489249 78.766571
[pelvis]
4 169.435242 0.051022 0.000000 -0.001256 -0.117075 -1.986605 169.435257
5 169.435242 0.051022 0.000000 0.013474 -0.165955 -8.140870 169.435257
[null_rope03_connect]
4 -1.257226 -2.466202 137.391083 150.134506 -65.285545 -67.439041 137.418976
5 -1.257226 -2.466202 137.391083 152.101578 -56.943829 -59.385750 137.418976
[null_rope04_connect]
4 -1.259640 -2.480268 -137.844437 150.134506 -65.285545 -67.439041 137.872513
5 -1.259640 -2.480268 -137.844437 152.101578 -56.943829 -59.385750 137.872513
[Rope3_Seg01]
4 0.000000 0.000000 0.000000 16.727262 -0.382465 -68.110672 0.000000
5 0.000000 0.000000 0.000000 15.782612 -1.029223 -58.522289 0.000000
[Rope3_Seg02]
4 139.999924 -0.000119 0.000060 1.968239 10.252304 8.857665 139.999924
5 139.999924 -0.000119 0.000060 0.035119 6.891025 13.751193 139.999924
[Rope3_Seg03]
4 139.999924 -0.000119 0.000119 0.215827 11.057418 22.070820 139.999924
5 139.999924 -0.000119 0.000119 -21.276524 5.466733 34.338367 139.999924
[Rope3_Seg04]
4 139.999924 0.000119 0.000000 45.019684 29.606333 12.793563 139.999924
5 139.999924 0.000119 0.000000 -102.788109 6.687206 32.062363 139.999924
[Rope3_Seg05]
4 139.999924 -0.000238 0.000060 26.459816 11.945980 -30.216652 139.999924
5 139.999924 -0.000238 0.000060 -109.383217 -27.286394 47.329315 139.999924
[Rope3_Seg06]
4 139.999893 -0.000119 -0.000060 3.535307 0.238837 -7.353783 139.999893
5 139.999893 -0.000119 -0.000060 -0.029754 -10.016561 -11.104117 139.999893
[Rope3_Seg07]
4 139.999771 0.000060 -0.000119 1.847049 0.013250 -3.787707 139.999771
5 139.999771 0.000060 -0.000119 0.462497 -3.667811 -4.645979 139.999771
[Rope3_Seg08]
4 139.999985 -0.000060 0.000000 1.189946 -0.060822 -2.081334 139.999985
5 139.999985 -0.000060 0.000000 0.499060 -1.848329 -2.311557 139.999985
[Rope3_Seg09]
4 90.185997 -0.000179 -0.000060 89.793228 -1.359877 -0.847183 90.185997
5 90.185997 -0.000179 -0.000060 89.793228 -1.359877 -0.847183 90.185997
[R_rear_hand01]
4 103.366196 -6.073594 -10.757982 173.360733 -15.257832 -74.504295 104.101845
5 103.366196 -6.073594 -10.757982 172.988388 -15.229324 -75.191986 104.101845
[R_rear_hand02]
4 100.509819 12.039542 -7.992327 -13.721433 36.601822 70.754135 101.543350
5 100.509819 12.039542 -7.992327 -13.089580 36.801193 71.803032 101.543350
[R_rear_hand03]
4 101.539970 5.215704 5.435467 72.550484 -70.706764 20.388565 101.819031
5 101.539970 5.215704 5.435467 71.770485 -71.527267 21.210228 101.819031
[Rope4_Seg01]
4 -0.000019 -0.000017 -0.000153 -98.906929 4.818729 -98.526917 0.000155
5 -0.000019 -0.000022 -0.000153 -99.426918 -3.496662 -87.977226 0.000155
[Rope4_Seg02]
4 139.999985 0.000060 0.000119 0.018354 3.612657 -0.255066 139.999985
5 139.999985 0.000060 0.000119 -0.827530 7.607557 -0.915836 139.999985
[Rope4_Seg03]
4 139.999924 0.000000 -0.000238 0.209538 5.776688 -0.492868 139.999924
5 139.999924 0.000000 -0.000238 -0.442708 12.867833 -1.601148 139.999924
[Rope4_Seg04]
4 139.999985 0.000000 0.000119 1.386449 12.561373 -8.162796 139.999985
5 139.999985 0.000000 0.000119 1.740423 23.111526 -10.584127 139.999985
[Rope4_Seg05]
4 139.999802 -0.000060 -0.000119 -3.280753 16.456215 21.920568 139.999802
5 139.999802 -0.000060 -0.000119 2.119603 23.910967 13.142204 139.999802
[Rope4_Seg06]
4 139.999924 0.000000 0.000060 -15.003996 5.050650 19.441725 139.999924
5 139.999924 0.000000 0.000060 -29.929523 16.047735 24.570799 139.999924
[Rope4_Seg07]
4 139.999802 0.000000 0.000000 -8.914186 1.077770 8.493142 139.999802
5 139.999802 0.000000 0.000000 -31.671188 2.753504 12.372210 139.999802
[Rope4_Seg08]
4 139.999924 0.000000 0.000119 -6.320008 -0.118465 3.926965 139.999924
5 139.999924 0.000000 0.000119 -20.193302 -2.028800 5.796234 139.999924
[Rope4_Seg09]
4 90.185791 0.000060 0.000060 -135.617828 2.228885 0.850567 90.185791
5 90.185791 0.000060 0.000060 -135.617828 2.228885 0.850567 90.185791
[L_rear_hand01]
4 101.696655 -8.392275 -7.654577 -13.731910 -36.595154 109.269127 102.329041
5 101.696655 -8.392275 -7.654577 -13.100018 -36.799313 108.206543 102.329041
[L_rear_hand02]
4 102.726799 -1.568258 5.773216 72.566826 70.694969 159.630798 102.900848
5 102.726799 -1.568258 5.773216 71.770462 71.527245 158.789749 102.900848
[L_rear_hand03]
4 104.552910 9.721220 -10.420293 -177.172852 -24.512310 -107.383331 105.519653
5 104.552910 9.721220 -10.420293 -177.573471 -24.553633 -106.424133 105.519653
